# xmcd CD database file
#
# Track frame offsets:
#	183
#	14053
#	29098
#	47158
#	65323
#	78003
#
# Disc length: 1196 seconds
#
# Revision: 1
# Processed by: cddbd v1.5.2PL0 Copyright (c) Steve Scherf et al.
# Submitted via: CDex 1.70beta2
#
DISCID=4804aa06
DTITLE=Backstreet Blues Band, The - Money
DYEAR=1900
DGENRE=Blues
TTITLE0=Something You Got
TTITLE1=Backstreet
TTITLE2=Money
TTITLE3=Dancin'
TTITLE4=Bogey Boogie
TTITLE5=You're That Someone
EXTD=
EXTT0=
EXTT1=
EXTT2=
EXTT3=
EXTT4=
EXTT5=
PLAYORDER=
